<mxfile host="app.diagrams.net" modified="2023-02-17T15:13:16.965Z" agent="5.0 (Windows NT 10.0; Win64; x64) AppleWebKit/537.36 (KHTML, like Gecko) Chrome/110.0.0.0 Safari/537.36" etag="8E4TgRU_MKwSSvnUDXl9" version="20.8.20" type="github">
  <diagram name="Page-1" id="c4acf3e9-155e-7222-9cf6-157b1a14988f">
    <mxGraphModel dx="2140" dy="602" grid="1" gridSize="10" guides="1" tooltips="1" connect="1" arrows="1" fold="1" page="1" pageScale="1" pageWidth="850" pageHeight="1100" background="none" math="0" shadow="0">
      <root>
        <mxCell id="0" />
        <mxCell id="1" parent="0" />
        <mxCell id="AoFDdX8p7UHHFkjHXJvL-8" style="edgeStyle=orthogonalEdgeStyle;rounded=0;orthogonalLoop=1;jettySize=auto;html=1;entryX=0.941;entryY=0.756;entryDx=0;entryDy=0;entryPerimeter=0;" edge="1" parent="1" source="AoFDdX8p7UHHFkjHXJvL-1" target="AoFDdX8p7UHHFkjHXJvL-3">
          <mxGeometry relative="1" as="geometry" />
        </mxCell>
        <mxCell id="AoFDdX8p7UHHFkjHXJvL-16" style="edgeStyle=orthogonalEdgeStyle;rounded=0;orthogonalLoop=1;jettySize=auto;html=1;exitX=0;exitY=1;exitDx=0;exitDy=0;entryX=0.824;entryY=0.353;entryDx=0;entryDy=0;entryPerimeter=0;" edge="1" parent="1" source="AoFDdX8p7UHHFkjHXJvL-1" target="AoFDdX8p7UHHFkjHXJvL-6">
          <mxGeometry relative="1" as="geometry">
            <Array as="points">
              <mxPoint x="-45" y="210" />
            </Array>
          </mxGeometry>
        </mxCell>
        <mxCell id="AoFDdX8p7UHHFkjHXJvL-19" style="edgeStyle=orthogonalEdgeStyle;rounded=0;orthogonalLoop=1;jettySize=auto;html=1;entryX=0.529;entryY=0.176;entryDx=0;entryDy=0;entryPerimeter=0;" edge="1" parent="1" source="AoFDdX8p7UHHFkjHXJvL-1" target="AoFDdX8p7UHHFkjHXJvL-4">
          <mxGeometry relative="1" as="geometry" />
        </mxCell>
        <mxCell id="AoFDdX8p7UHHFkjHXJvL-1" value="Comensal" style="rounded=0;whiteSpace=wrap;html=1;" vertex="1" parent="1">
          <mxGeometry x="-45" y="130" width="120" height="60" as="geometry" />
        </mxCell>
        <mxCell id="AoFDdX8p7UHHFkjHXJvL-2" value="nome" style="ellipse;whiteSpace=wrap;html=1;" vertex="1" parent="1">
          <mxGeometry x="-130" y="60.000000000000014" width="85" height="56.67" as="geometry" />
        </mxCell>
        <mxCell id="AoFDdX8p7UHHFkjHXJvL-3" value="id_comensal" style="ellipse;whiteSpace=wrap;html=1;" vertex="1" parent="1">
          <mxGeometry x="-30" y="50" width="85" height="56.67" as="geometry" />
        </mxCell>
        <mxCell id="AoFDdX8p7UHHFkjHXJvL-4" value="email" style="ellipse;whiteSpace=wrap;html=1;" vertex="1" parent="1">
          <mxGeometry x="-30" y="230" width="85" height="56.67" as="geometry" />
        </mxCell>
        <mxCell id="AoFDdX8p7UHHFkjHXJvL-5" value="cpf" style="ellipse;whiteSpace=wrap;html=1;" vertex="1" parent="1">
          <mxGeometry x="-160" y="131.66" width="85" height="56.67" as="geometry" />
        </mxCell>
        <mxCell id="AoFDdX8p7UHHFkjHXJvL-6" value="matricula" style="ellipse;whiteSpace=wrap;html=1;" vertex="1" parent="1">
          <mxGeometry x="-130" y="190" width="85" height="56.67" as="geometry" />
        </mxCell>
        <mxCell id="AoFDdX8p7UHHFkjHXJvL-11" value="Relation" style="endArrow=open;html=1;endSize=12;startArrow=diamondThin;startSize=14;startFill=0;edgeStyle=orthogonalEdgeStyle;rounded=0;" edge="1" parent="1">
          <mxGeometry relative="1" as="geometry">
            <mxPoint x="110" y="39.99999999999997" as="sourcePoint" />
            <mxPoint x="270" y="39.99999999999997" as="targetPoint" />
          </mxGeometry>
        </mxCell>
        <mxCell id="AoFDdX8p7UHHFkjHXJvL-12" value="0..n" style="edgeLabel;resizable=0;html=1;align=left;verticalAlign=top;" connectable="0" vertex="1" parent="AoFDdX8p7UHHFkjHXJvL-11">
          <mxGeometry x="-1" relative="1" as="geometry" />
        </mxCell>
        <mxCell id="AoFDdX8p7UHHFkjHXJvL-13" value="1" style="edgeLabel;resizable=0;html=1;align=right;verticalAlign=top;" connectable="0" vertex="1" parent="AoFDdX8p7UHHFkjHXJvL-11">
          <mxGeometry x="1" relative="1" as="geometry" />
        </mxCell>
      </root>
    </mxGraphModel>
  </diagram>
</mxfile>
